<svg width="99" height="51" viewBox="0 0 99 51" fill="none" xmlns="http://www.w3.org/2000/svg">
<path d="M23.4891 0.54244V19H17.7276V9.79729L14.886 19H9.93267L7.09104 9.79729V19H1.3035V0.54244H8.39454L12.4615 11.6222L16.4241 0.54244H23.4891ZM35.0947 19.1825C33.3567 19.1825 31.7577 18.7741 30.2978 17.9572C28.8553 17.1403 27.7082 16.0106 26.8566 14.5681C26.005 13.1256 25.5792 11.5005 25.5792 9.69301C25.5792 7.88549 26.005 6.26046 26.8566 4.81792C27.7082 3.37538 28.8553 2.25437 30.2978 1.45489C31.7577 0.638029 33.3567 0.229599 35.0947 0.229599C36.8327 0.229599 38.423 0.638029 39.8655 1.45489C41.3081 2.25437 42.4464 3.37538 43.2807 4.81792C44.1323 6.26046 44.5581 7.88549 44.5581 9.69301C44.5581 11.5005 44.1323 13.1256 43.2807 14.5681C42.4464 16.0106 41.2994 17.1403 39.8394 17.9572C38.3969 18.7741 36.8153 19.1825 35.0947 19.1825ZM35.0947 13.786C36.2418 13.786 37.1282 13.421 37.7538 12.6911C38.3795 11.9437 38.6924 10.9444 38.6924 9.69301C38.6924 8.42427 38.3795 7.42492 37.7538 6.69496C37.1282 5.94762 36.2418 5.57395 35.0947 5.57395C33.9302 5.57395 33.0352 5.94762 32.4095 6.69496C31.7838 7.42492 31.471 8.42427 31.471 9.69301C31.471 10.9444 31.7838 11.9437 32.4095 12.6911C33.0352 13.421 33.9302 13.786 35.0947 13.786ZM59.0031 9.53659C60.1155 9.79729 60.9758 10.3361 61.5841 11.1529C62.2097 11.9524 62.5226 12.8822 62.5226 13.9424C62.5226 15.5588 61.9838 16.8101 60.9062 17.6965C59.8461 18.5655 58.3166 19 56.3179 19H46.646V0.54244H56.0572C57.9343 0.54244 59.4116 0.95087 60.4891 1.76773C61.5667 2.58459 62.1055 3.77512 62.1055 5.33932C62.1055 6.41688 61.8187 7.32933 61.2452 8.07667C60.689 8.80663 59.9417 9.29327 59.0031 9.53659ZM52.4335 7.73776H54.6755C55.1969 7.73776 55.5793 7.63348 55.8226 7.42492C56.0833 7.21636 56.2136 6.89483 56.2136 6.46033C56.2136 6.00845 56.0833 5.67823 55.8226 5.46967C55.5793 5.24373 55.1969 5.13076 54.6755 5.13076H52.4335V7.73776ZM55.0666 14.3595C55.588 14.3595 55.9703 14.2639 56.2136 14.0728C56.4743 13.8642 56.6047 13.534 56.6047 13.0821C56.6047 12.1957 56.092 11.7525 55.0666 11.7525H52.4335V14.3595H55.0666ZM70.2548 0.54244V19H64.4672V0.54244H70.2548ZM78.6562 14.6202H84.2352V19H72.8687V0.54244H78.6562V14.6202ZM91.844 5.15683V7.42492H97.5794V11.7786H91.844V14.3856H98.3615V19H86.0565V0.54244H98.3615V5.15683H91.844ZM13.1393 47.2105H6.98676L6.07431 50H0L6.75213 31.5424H13.4261L20.1521 50H14.0517L13.1393 47.2105ZM11.7315 42.8568L10.063 37.721L8.39454 42.8568H11.7315ZM36.5615 37.8774C36.5615 39.0419 36.2922 40.1021 35.7534 41.058C35.2146 41.9965 34.4151 42.7439 33.3549 43.3C32.3121 43.8562 31.0434 44.1342 29.5487 44.1342H27.2546V50H21.467V31.5424H29.5487C31.8081 31.5424 33.5374 32.116 34.7366 33.2631C35.9532 34.4101 36.5615 35.9483 36.5615 37.8774ZM28.897 39.572C30.0962 39.572 30.6958 39.0071 30.6958 37.8774C30.6958 36.7477 30.0962 36.1829 28.897 36.1829H27.2546V39.572H28.897ZM53.4918 37.8774C53.4918 39.0419 53.2224 40.1021 52.6836 41.058C52.1448 41.9965 51.3453 42.7439 50.2852 43.3C49.2424 43.8562 47.9736 44.1342 46.4789 44.1342H44.1848V50H38.3972V31.5424H46.4789C48.7383 31.5424 50.4676 32.116 51.6669 33.2631C52.8835 34.4101 53.4918 35.9483 53.4918 37.8774ZM45.8272 39.572C47.0264 39.572 47.626 39.0071 47.626 37.8774C47.626 36.7477 47.0264 36.1829 45.8272 36.1829H44.1848V39.572H45.8272ZM58.1952 50.2086C57.1871 50.2086 56.379 49.9392 55.7707 49.4004C55.1624 48.8616 54.8582 48.1838 54.8582 47.3669C54.8582 46.5327 55.1624 45.8462 55.7707 45.3074C56.379 44.7512 57.1871 44.4732 58.1952 44.4732C59.1858 44.4732 59.9853 44.7512 60.5936 45.3074C61.2019 45.8462 61.5061 46.5327 61.5061 47.3669C61.5061 48.1838 61.2019 48.8616 60.5936 49.4004C59.9853 49.9392 59.1858 50.2086 58.1952 50.2086Z" fill="#12253F"/>
</svg>
